<?xml version="1.0" encoding="UTF-8"?>
<svg xmlns="http://www.w3.org/2000/svg" width="512" height="512" viewBox="0 0 1024 1024" role="img" aria-label="KIZUNAMA">
  <rect width="100%" height="100%" fill="#d6304a"/>
  <path fill="#ffffff" transform="translate(295.93 716.60)" d="M142.6 0L42.78 0L42.78 -409.2L142.6 -409.2L142.6 -230.02Q172.98 -243.66 199.02 -264.12Q225.06 -284.58 245.21 -308.76Q265.36 -332.94 278.69 -358.67Q292.02 -384.4 298.21999999999997 -409.2L298.21999999999997 -409.2L413.54 -409.2Q406.1 -380.68 389.36 -351.23Q372.62 -321.78 349.06 -294.81Q325.5 -267.84 298.53 -246.76Q271.56 -225.68 243.66 -213.28L243.66 -213.28L243.66 -203.98Q272.18 -203.98 294.19 -197.78Q316.2 -191.58 333.25 -178.56Q350.3 -165.54 363.01 -146.01Q375.71999999999997 -126.48 385.02 -99.2L385.02 -99.2L420.36 0L306.9 0L283.96 -81.22Q276.52 -108.5 264.12 -124.31Q251.72 -140.12 231.26 -147.25Q210.8 -154.38 178.56 -154.38L178.56 -154.38L142.6 -154.38L142.6 0"/>
</svg>