<svg xmlns="http://www.w3.org/2000/svg" xmlns:xlink="http://www.w3.org/1999/xlink" width="3093px" height="1441px" viewBox="0 0 3093.3525163744052 1441.4254921505615">
    
        <g id="5d14b0d8-d48c-433a-b483-b95055b8e616" name="New Group">
          
        <g id="c143524d-ed05-49df-9c72-04f59abc2f6c" name="New Group">
          <g id="fbafa428-b1cf-4c60-bf9f-b428c679166f"><path style="fill: rgb(255,255,255); fill-opacity: 1.00;  stroke: none;  stroke-linecap: butt; stroke-linejoin: miter; stroke-miterlimit: 10; stroke-width: 0;  stroke-dashoffset: 0;  fill-rule: nonzero;" d="M277.77807,1223.565v-1032.59804h899.07244v1032.59804z"></path></g>
<g id="0ae9a7d7-d318-4909-b067-ccda3c5bfe85"><path style="fill: rgb(214,48,74); fill-opacity: 1.00;  stroke: none;  stroke-linecap: butt; stroke-linejoin: miter; stroke-miterlimit: 4; stroke-width: 0;  stroke-dashoffset: 0;  fill-rule: nonzero;" d="M727.43319,0c401.75056,0 727.43319,322.22231 727.43319,719.70434c0,397.48203 -325.68263,719.70434 -727.43319,719.70434c-401.75056,0 -727.43319,-322.22231 -727.43319,-719.70434c0,-397.48203 325.68263,-719.70434 727.43319,-719.70434zM491.20778,394.20399c-181.69633,103.78924 -243.9487,333.65325 -139.04772,513.41908c104.90382,179.76584 337.23632,241.3596 518.93265,137.57036c91.33549,-52.17294 152.47398,-136.20685 177.38572,-229.71782c-127.90605,72.87007 -291.33131,29.47415 -365.14588,-97.02233c-73.81742,-126.49647 -30.09186,-288.2219 97.64654,-361.37872c-94.30773,-25.41174 -198.43298,-15.04351 -289.77131,37.12943z"></path></g>
        </g>
      
<g id="bb87bfe6-b6ca-4d91-a57d-bce0e988376c">
<g style="">
		<g id="bb87bfe6-b6ca-4d91-a57d-bce0e988376c-child-0">
<path style="stroke: rgb(193,193,193); stroke-opacity: 1.00; stroke-width: 0; stroke-dasharray: none; stroke-linecap: butt; stroke-dashoffset: 0; stroke-linejoin: miter; stroke-miterlimit: 4; fill: rgb(255,255,255); fill-opacity: 1.00; fill-rule: nonzero; opacity: 1;" transform="matrix(0.795663 0 0 0.795663 2318.961239 1345.061235) matrix(1 0 0 1 -791.032725 -2.64726)  translate(-5859.42581, -3253.3487)" d="M 5886.56 3134.88 C 5913.92 3134.88 5935.15 3143.82 5950.26 3161.69 C 5965.37 3179.56 5972.93 3204.93 5972.93 3237.80 L 5972.93 3371.81 L 5894.83 3371.81 L 5894.83 3240.11 C 5894.83 3225.99 5891.80 3215.46 5885.73 3208.51 C 5879.67 3201.56 5871.23 3198.09 5860.42 3198.09 C 5849.61 3198.09 5840.84 3201.84 5834.11 3209.34 C 5827.38 3216.84 5824.02 3227.98 5824.02 3242.76 L 5824.02 3371.81 L 5745.92 3371.81 L 5745.92 3140.18 L 5821.70 3140.18 L 5821.70 3165.00 C 5837.37 3144.92 5858.98 3134.88 5886.56 3134.88 z" stroke-linecap="round"></path>
</g>
		<g id="bb87bfe6-b6ca-4d91-a57d-bce0e988376c-child-1">
<path style="stroke: rgb(193,193,193); stroke-opacity: 1.00; stroke-width: 0; stroke-dasharray: none; stroke-linecap: butt; stroke-dashoffset: 0; stroke-linejoin: miter; stroke-miterlimit: 4; fill: rgb(255,255,255); fill-opacity: 1.00; fill-rule: nonzero; opacity: 1;" transform="matrix(0.795663 0 0 0.795663 2318.961239 1345.061235) matrix(1 0 0 1 -565.3543 0.00001)  translate(-6085.104235, -3255.99597)" d="M 6124.15 3199.08 L 6124.15 3312.91 L 6158.90 3312.91 L 6158.90 3371.81 L 6011.31 3371.81 L 6011.31 3312.91 L 6046.06 3312.91 L 6046.06 3199.08 L 6011.31 3199.08 L 6011.31 3140.18 L 6158.90 3140.18 L 6158.90 3199.08 z" stroke-linecap="round"></path>
</g>
		<g id="bb87bfe6-b6ca-4d91-a57d-bce0e988376c-child-2">
<path style="stroke: rgb(193,193,193); stroke-opacity: 1.00; stroke-width: 0; stroke-dasharray: none; stroke-linecap: butt; stroke-dashoffset: 0; stroke-linejoin: miter; stroke-miterlimit: 4; fill: rgb(255,255,255); fill-opacity: 1.00; fill-rule: nonzero; opacity: 1;" transform="matrix(0.795663 0 0 0.795663 2318.961239 1345.061235) matrix(1 0 0 1 -337.02859 0.00001)  translate(-6313.429945, -3255.99597)" d="M 6427.59 3140.18 L 6427.59 3371.81 L 6349.50 3371.81 L 6349.50 3286.44 L 6277.36 3286.44 L 6277.36 3371.81 L 6199.27 3371.81 L 6199.27 3140.18 L 6277.36 3140.18 L 6277.36 3222.24 L 6349.50 3222.24 L 6349.50 3140.18 z" stroke-linecap="round"></path>
</g>
		<g id="bb87bfe6-b6ca-4d91-a57d-bce0e988376c-child-3">
<path style="stroke: rgb(193,193,193); stroke-opacity: 1.00; stroke-width: 0; stroke-dasharray: none; stroke-linecap: butt; stroke-dashoffset: 0; stroke-linejoin: miter; stroke-miterlimit: 4; fill: rgb(255,255,255); fill-opacity: 1.00; fill-rule: nonzero; opacity: 1;" transform="matrix(0.795663 0 0 0.795663 2318.961239 1345.061235) matrix(1 0 0 1 -53.772375 0.000015)  translate(-6596.68616, -3255.995975)" d="M 6596.69 3377.11 C 6571.76 3377.11 6549.37 3371.92 6529.51 3361.56 C 6509.66 3351.19 6494.11 3336.79 6482.85 3318.37 C 6471.60 3299.95 6465.98 3279.16 6465.98 3256.00 C 6465.98 3232.83 6471.60 3212.04 6482.85 3193.62 C 6494.11 3175.20 6509.66 3160.81 6529.51 3150.44 C 6549.37 3140.07 6571.76 3134.88 6596.69 3134.88 C 6621.61 3134.88 6644.01 3140.07 6663.86 3150.44 C 6683.71 3160.81 6699.27 3175.20 6710.52 3193.62 C 6721.77 3212.04 6727.39 3232.83 6727.39 3256.00 C 6727.39 3279.16 6721.77 3299.95 6710.52 3318.37 C 6699.27 3336.79 6683.71 3351.19 6663.86 3361.56 C 6644.01 3371.92 6621.61 3377.11 6596.69 3377.11 z M 6596.69 3313.90 C 6606.39 3313.90 6615.16 3311.53 6622.99 3306.79 C 6630.82 3302.05 6637.06 3295.32 6641.69 3286.60 C 6646.32 3277.89 6648.64 3267.69 6648.64 3256.00 C 6648.64 3244.30 6646.32 3234.10 6641.69 3225.39 C 6637.06 3216.67 6630.82 3209.94 6622.99 3205.20 C 6615.16 3200.46 6606.39 3198.09 6596.69 3198.09 C 6586.98 3198.09 6578.21 3200.46 6570.38 3205.20 C 6562.55 3209.94 6556.32 3216.67 6551.68 3225.39 C 6547.05 3234.10 6544.73 3244.30 6544.73 3256.00 C 6544.73 3267.69 6547.05 3277.89 6551.68 3286.60 C 6556.32 3295.32 6562.55 3302.05 6570.38 3306.79 C 6578.21 3311.53 6586.98 3313.90 6596.69 3313.90 z" stroke-linecap="round"></path>
</g>
		<g id="bb87bfe6-b6ca-4d91-a57d-bce0e988376c-child-4">
<path style="stroke: rgb(193,193,193); stroke-opacity: 1.00; stroke-width: 0; stroke-dasharray: none; stroke-linecap: butt; stroke-dashoffset: 0; stroke-linejoin: miter; stroke-miterlimit: 4; fill: rgb(255,255,255); fill-opacity: 1.00; fill-rule: nonzero; opacity: 1;" transform="matrix(0.795663 0 0 0.795663 2318.961239 1345.061235) matrix(1 0 0 1 228.82204 -2.64726)  translate(-6879.280575, -3253.3487)" d="M 6906.41 3134.88 C 6933.77 3134.88 6955.00 3143.82 6970.11 3161.69 C 6985.23 3179.56 6992.78 3204.93 6992.78 3237.80 L 6992.78 3371.81 L 6914.69 3371.81 L 6914.69 3240.11 C 6914.69 3225.99 6911.65 3215.46 6905.59 3208.51 C 6899.52 3201.56 6891.08 3198.09 6880.27 3198.09 C 6869.46 3198.09 6860.69 3201.84 6853.97 3209.34 C 6847.24 3216.84 6843.87 3227.98 6843.87 3242.76 L 6843.87 3371.81 L 6765.78 3371.81 L 6765.78 3140.18 L 6841.56 3140.18 L 6841.56 3165.00 C 6857.22 3144.92 6878.84 3134.88 6906.41 3134.88 z" stroke-linecap="round"></path>
</g>
		<g id="bb87bfe6-b6ca-4d91-a57d-bce0e988376c-child-5">
<path style="stroke: rgb(193,193,193); stroke-opacity: 1.00; stroke-width: 0; stroke-dasharray: none; stroke-linecap: butt; stroke-dashoffset: 0; stroke-linejoin: miter; stroke-miterlimit: 4; fill: rgb(255,255,255); fill-opacity: 1.00; fill-rule: nonzero; opacity: 1;" transform="matrix(0.795663 0 0 0.795663 2318.961239 1345.061235) matrix(1 0 0 1 497.187455 0)  translate(-7147.64599, -3255.99596)" d="M 7191.66 3249.71 L 7259.49 3249.71 L 7259.49 3371.81 L 7208.53 3371.81 L 7208.53 3357.58 C 7193.09 3370.60 7172.35 3377.11 7146.32 3377.11 C 7124.48 3377.11 7104.68 3372.48 7086.92 3363.21 C 7069.17 3353.94 7055.10 3340.43 7044.73 3322.67 C 7034.37 3304.92 7029.18 3283.68 7029.18 3258.97 C 7029.18 3234.71 7034.75 3213.14 7045.89 3194.28 C 7057.03 3175.42 7072.53 3160.81 7092.38 3150.44 C 7112.24 3140.07 7134.85 3134.88 7160.22 3134.88 C 7182.94 3134.88 7203.29 3138.69 7221.27 3146.30 C 7239.25 3153.91 7254.20 3165.00 7266.11 3179.56 L 7216.14 3223.57 C 7201.58 3206.58 7184.27 3198.09 7164.19 3198.09 C 7146.76 3198.09 7133.03 3203.38 7122.99 3213.97 C 7112.96 3224.56 7107.94 3239.34 7107.94 3258.31 C 7107.94 3277.28 7112.51 3291.51 7121.67 3301.00 C 7130.82 3310.49 7142.68 3315.23 7157.24 3315.23 C 7170.70 3315.23 7182.17 3311.92 7191.66 3305.30 z" stroke-linecap="round"></path>
</g>
		<g id="bb87bfe6-b6ca-4d91-a57d-bce0e988376c-child-6">
<path style="stroke: rgb(193,193,193); stroke-opacity: 1.00; stroke-width: 0; stroke-dasharray: none; stroke-linecap: butt; stroke-dashoffset: 0; stroke-linejoin: miter; stroke-miterlimit: 4; fill: rgb(255,255,255); fill-opacity: 1.00; fill-rule: nonzero; opacity: 1;" transform="matrix(0.795663 0 0 0.795663 2318.961239 1345.061235) matrix(1 0 0 1 773.82555 0.000015)  translate(-7424.284085, -3255.995975)" d="M 7424.28 3377.11 C 7399.36 3377.11 7376.96 3371.92 7357.11 3361.56 C 7337.26 3351.19 7321.70 3336.79 7310.45 3318.37 C 7299.20 3299.95 7293.58 3279.16 7293.58 3256.00 C 7293.58 3232.83 7299.20 3212.04 7310.45 3193.62 C 7321.70 3175.20 7337.26 3160.81 7357.11 3150.44 C 7376.96 3140.07 7399.36 3134.88 7424.28 3134.88 C 7449.21 3134.88 7471.60 3140.07 7491.46 3150.44 C 7511.31 3160.81 7526.87 3175.20 7538.12 3193.62 C 7549.37 3212.04 7554.99 3232.83 7554.99 3256.00 C 7554.99 3279.16 7549.37 3299.95 7538.12 3318.37 C 7526.87 3336.79 7511.31 3351.19 7491.46 3361.56 C 7471.60 3371.92 7449.21 3377.11 7424.28 3377.11 z M 7424.28 3313.90 C 7433.99 3313.90 7442.76 3311.53 7450.59 3306.79 C 7458.42 3302.05 7464.65 3295.32 7469.29 3286.60 C 7473.92 3277.89 7476.24 3267.69 7476.24 3256.00 C 7476.24 3244.30 7473.92 3234.10 7469.29 3225.39 C 7464.65 3216.67 7458.42 3209.94 7450.59 3205.20 C 7442.76 3200.46 7433.99 3198.09 7424.28 3198.09 C 7414.58 3198.09 7405.81 3200.46 7397.98 3205.20 C 7390.15 3209.94 7383.91 3216.67 7379.28 3225.39 C 7374.65 3234.10 7372.33 3244.30 7372.33 3256.00 C 7372.33 3267.69 7374.65 3277.89 7379.28 3286.60 C 7383.91 3295.32 7390.15 3302.05 7397.98 3306.79 C 7405.81 3311.53 7414.58 3313.90 7424.28 3313.90 z" stroke-linecap="round"></path>
</g>
</g>
</g>

<g id="3b2979f0-4e74-468c-afb9-0b2305cc234c">
<g style="">
		<g id="3b2979f0-4e74-468c-afb9-0b2305cc234c-child-0">
<path style="stroke: rgb(193,193,193); stroke-opacity: 1.00; stroke-width: 0; stroke-dasharray: none; stroke-linecap: butt; stroke-dashoffset: 0; stroke-linejoin: miter; stroke-miterlimit: 4; fill: rgb(255,255,255); fill-opacity: 1.00; fill-rule: nonzero; opacity: 1;" transform="matrix(0.813085 0 0 0.813085 2318.961516 1041.648853) matrix(1 0 0 1 -739.734695 0)  translate(-5902.512975, -2874.79628)" d="M 5757.10 2690.39 L 5881.44 2690.39 L 5881.44 2962.78 L 6047.93 2962.78 L 6047.93 3059.20 L 5757.10 3059.20 z" stroke-linecap="round"></path>
</g>
		<g id="3b2979f0-4e74-468c-afb9-0b2305cc234c-child-1">
<path style="stroke: rgb(193,193,193); stroke-opacity: 1.00; stroke-width: 0; stroke-dasharray: none; stroke-linecap: butt; stroke-dashoffset: 0; stroke-linejoin: miter; stroke-miterlimit: 4; fill: rgb(255,255,255); fill-opacity: 1.00; fill-rule: nonzero; opacity: 1;" transform="matrix(0.813085 0 0 0.813085 2318.961516 1041.648853) matrix(1 0 0 1 -301.90029 4.21501)  translate(-6340.34738, -2879.01129)" d="M 6520.01 2690.39 L 6520.01 3059.20 L 6399.36 3059.20 L 6399.36 3019.69 C 6374.42 3051.65 6340.35 3067.63 6297.14 3067.63 C 6253.94 3067.63 6220.40 3053.41 6196.51 3024.96 C 6172.63 2996.50 6160.68 2956.11 6160.68 2903.77 L 6160.68 2690.39 L 6285.03 2690.39 L 6285.03 2900.09 C 6285.03 2922.57 6289.77 2939.34 6299.25 2950.40 C 6308.73 2961.47 6321.91 2967.00 6338.77 2967.00 C 6355.28 2967.00 6368.89 2960.94 6379.60 2948.82 C 6390.31 2936.70 6395.67 2919.05 6395.67 2895.87 L 6395.67 2690.39 z" stroke-linecap="round"></path>
</g>
		<g id="3b2979f0-4e74-468c-afb9-0b2305cc234c-child-2">
<path style="stroke: rgb(193,193,193); stroke-opacity: 1.00; stroke-width: 0; stroke-dasharray: none; stroke-linecap: butt; stroke-dashoffset: 0; stroke-linejoin: miter; stroke-miterlimit: 4; fill: rgb(255,255,255); fill-opacity: 1.00; fill-rule: nonzero; opacity: 1;" transform="matrix(0.813085 0 0 0.813085 2318.961516 1041.648853) matrix(1 0 0 1 202.847445 -4.21501)  translate(-6845.095115, -2870.58127)" d="M 6888.30 2681.96 C 6931.85 2681.96 6965.66 2696.19 6989.72 2724.64 C 7013.78 2753.09 7025.81 2793.48 7025.81 2845.82 L 7025.81 3059.20 L 6901.47 3059.20 L 6901.47 2849.51 C 6901.47 2827.03 6896.64 2810.25 6886.98 2799.19 C 6877.32 2788.13 6863.89 2782.59 6846.68 2782.59 C 6829.46 2782.59 6815.50 2788.56 6804.79 2800.51 C 6794.08 2812.45 6788.72 2830.19 6788.72 2853.72 L 6788.72 3059.20 L 6664.38 3059.20 L 6664.38 2690.39 L 6785.03 2690.39 L 6785.03 2729.91 C 6809.97 2697.94 6844.39 2681.96 6888.30 2681.96 z" stroke-linecap="round"></path>
</g>
		<g id="3b2979f0-4e74-468c-afb9-0b2305cc234c-child-3">
<path style="stroke: rgb(193,193,193); stroke-opacity: 1.00; stroke-width: 0; stroke-dasharray: none; stroke-linecap: butt; stroke-dashoffset: 0; stroke-linejoin: miter; stroke-miterlimit: 4; fill: rgb(255,255,255); fill-opacity: 1.00; fill-rule: nonzero; opacity: 1;" transform="matrix(0.813085 0 0 0.813085 2318.961516 1041.648853) matrix(1 0 0 1 703.38019 -4.21502)  translate(-7345.62786, -2870.58126)" d="M 7345.63 2681.96 C 7381.46 2681.96 7413.07 2689.07 7440.47 2703.30 C 7467.86 2717.52 7489.20 2738.25 7504.48 2765.47 C 7519.76 2792.69 7527.40 2825.09 7527.40 2862.68 L 7527.40 3059.20 L 7403.06 3059.20 L 7403.06 2984.91 L 7286.09 2984.91 L 7286.09 3059.20 L 7163.86 3059.20 L 7163.86 2862.68 C 7163.86 2825.09 7171.50 2792.69 7186.77 2765.47 C 7202.05 2738.25 7223.39 2717.52 7250.79 2703.30 C 7278.19 2689.07 7309.80 2681.96 7345.63 2681.96 z M 7403.06 2891.13 L 7403.06 2852.14 C 7403.06 2829.31 7397.70 2812.01 7386.99 2800.24 C 7376.27 2788.48 7362.14 2782.59 7344.57 2782.59 C 7327.01 2782.59 7312.87 2788.48 7302.16 2800.24 C 7291.45 2812.01 7286.09 2829.31 7286.09 2852.14 L 7286.09 2891.13 z" stroke-linecap="round"></path>
</g>
</g>
</g>

<g id="0900d187-f6b7-4a60-b5b1-083ab33661cb"><path style="fill: rgb(214,48,74); fill-opacity: 1.00;  stroke: none;  stroke-linecap: butt; stroke-linejoin: miter; stroke-miterlimit: 4; stroke-width: 0;  stroke-dashoffset: 0;  fill-rule: nonzero;" d="M1788.5189,651.33942c0,-18.3735 17.45482,-36.74693 47.77102,-36.74693c38.58428,0 66.14448,33.07221 70.73783,83.59925c-12.86142,0.91868 -26.64152,1.83734 -41.34028,1.83734c-46.85231,0 -77.16855,-20.21079 -77.16855,-48.68966zM1615.80836,197.51478c22.04812,-3.67468 55.12038,-6.43073 82.68057,-8.26807c49.60835,-3.67468 144.23171,-7.34936 190.16538,-8.26802c-44.0963,39.50295 -129.53293,105.64742 -180.97864,147.90638c-54.20171,45.01502 -161.68653,135.96367 -220.48159,181.89735l101.05402,104.72875c88.19265,-107.48481 184.65336,-188.32804 318.77965,-188.32804c101.05407,0 181.89735,49.60835 181.89735,128.61426c0,45.01502 -17.45482,80.84323 -54.20176,105.64742c-15.61743,-87.27392 -87.27392,-152.49978 -199.35209,-152.49978c-104.72875,0 -178.22263,75.33122 -178.22263,156.1745c0,101.05407 107.48475,161.68648 237.01768,161.68648c237.9364,0 341.74649,-125.85826 341.74649,-269.17128c0,-138.71968 -124.02088,-239.77375 -282.03271,-239.77375c-22.04817,0 -40.42162,0.91867 -64.30714,5.51205c50.52704,-38.58427 131.37027,-104.72873 182.81597,-139.63835c22.96684,-16.53611 46.85235,-30.3162 70.73786,-45.01502l-68.90048,-98.29801c-11.94276,3.67468 -37.66561,7.34936 -81.76195,11.02409c-54.20171,4.59335 -237.9364,7.34936 -287.54472,7.34936c-30.31625,0 -65.22584,-1.83734 -93.70471,-5.51203z"></path></g>
<g id="767b4607-fde8-4c1e-adfd-b2d426d0a1fc"><path style="fill: rgb(214,48,74); fill-opacity: 1.00;  stroke: none;  stroke-linecap: butt; stroke-linejoin: miter; stroke-miterlimit: 4; stroke-width: 0;  stroke-dashoffset: 0;  fill-rule: nonzero;" d="M2503.56426,0c-1.83733,46.85236 -10.1054,100.1354 -22.96684,149.74376c-23.88552,1.83734 -47.77102,2.75602 -71.65649,2.75602c-30.31624,0 -85.43663,-1.83734 -127.69559,-6.43074l10.10537,128.61426c42.259,2.75606 79.92461,3.67472 118.50888,3.67472c10.10537,0 19.29211,0 29.39754,-0.91867c-40.42162,95.54202 -110.24081,224.15627 -181.8973,314.18625l134.12628,67.98185c74.41255,-105.64747 151.58111,-266.41527 194.75874,-395.9482c62.46979,-8.26807 118.5089,-21.12949 156.1745,-31.23491l-3.67472,-127.69559c-31.23487,9.18674 -69.81914,18.3735 -112.99678,26.64152c12.86142,-45.93364 23.88546,-88.19264 30.3162,-116.6715zM2610.13036,649.50204c0,-26.64152 28.4789,-45.01502 73.49388,-45.01502c22.04817,0 42.25896,2.75606 62.46979,6.43074v4.59335c0,51.44571 -16.53612,83.59929 -71.65654,83.59929c-38.58428,0 -64.30714,-20.21084 -64.30714,-49.60836zM2731.39523,302.24354c2.75602,51.44571 6.43069,127.69559 10.10541,192.92139c-15.61748,-1.83734 -32.15357,-2.75602 -48.68969,-2.75602c-141.47569,0 -214.0509,79.0059 -214.0509,170.87321c0,106.5661 94.62333,163.52386 215.88823,163.52386c135.96366,0 183.73464,-66.14447 186.4907,-154.33711c45.01498,31.23488 82.68057,67.06315 111.15945,93.70466l73.49388,-119.42752c-45.93364,-42.25901 -110.24081,-89.11132 -190.16538,-119.42757c-1.83733,-38.58428 -3.67468,-74.41255 -4.59335,-96.46068c-0.91867,-45.01502 -2.75602,-89.11131 0,-128.61426zM3093.35252,247.12312c-49.60835,-33.99089 -168.11721,-97.37935 -234.26168,-125.85826l-71.65654,110.24081c64.30713,28.47885 171.79193,90.02997 226.91232,133.20765z"></path></g>
        </g>
      
  </svg>