<?xml version="1.0" encoding="UTF-8"?>
<svg xmlns="http://www.w3.org/2000/svg" width="1024" height="1024" viewBox="0 0 1024 1024" role="img" aria-label="KIZUNAMA">
  <rect width="100%" height="100%" fill="#d6304a"/>
  <path fill="#ffffff" transform="translate(351.69 560.00)" d="M105.80000000000001 0L31.740000000000002 0L31.740000000000002 -303.6L105.80000000000001 -303.6L105.80000000000001 -170.66Q128.34 -180.78 147.66 -195.96Q166.98000000000002 -211.14000000000001 181.93 -229.08Q196.88 -247.02 206.77 -266.11Q216.66 -285.2 221.26000000000002 -303.6L221.26000000000002 -303.6L306.82 -303.6Q301.3 -282.44 288.88 -260.59000000000003Q276.46000000000004 -238.74 258.98 -218.73000000000002Q241.5 -198.72 221.49 -183.08Q201.48000000000002 -167.44 180.78 -158.24L180.78 -158.24L180.78 -151.34Q201.94 -151.34 218.27 -146.74Q234.60000000000002 -142.14000000000001 247.25 -132.48000000000002Q259.90000000000003 -122.82000000000001 269.33 -108.33Q278.76 -93.84 285.66 -73.60000000000001L285.66 -73.60000000000001L311.88 0L227.70000000000002 0L210.68 -60.260000000000005Q205.16 -80.5 195.96 -92.23Q186.76000000000002 -103.96000000000001 171.58 -109.25Q156.4 -114.54 132.48000000000002 -114.54L132.48000000000002 -114.54L105.80000000000001 -114.54L105.80000000000001 0"/>
  <path fill="#ffffff" transform="translate(262.45 780.00)" d="M19.78 0L5.934 0L5.934 -56.760000000000005L19.78 -56.760000000000005L19.78 -31.906000000000002Q23.994000000000003 -33.798 27.606 -36.636Q31.218000000000004 -39.474000000000004 34.013000000000005 -42.828Q36.808 -46.182 38.657000000000004 -49.751000000000005Q40.506 -53.32000000000001 41.36600000000001 -56.760000000000005L41.36600000000001 -56.760000000000005L57.362 -56.760000000000005Q56.330000000000005 -52.804 54.008 -48.719Q51.68600000000001 -44.634 48.418000000000006 -40.893Q45.150000000000006 -37.152 41.409000000000006 -34.228Q37.668000000000006 -31.304000000000002 33.798 -29.584000000000003L33.798 -29.584000000000003L33.798 -28.294000000000004Q37.754000000000005 -28.294000000000004 40.807 -27.434Q43.86000000000001 -26.574 46.225 -24.768Q48.59 -22.962000000000003 50.353 -20.253Q52.11600000000001 -17.544 53.406000000000006 -13.760000000000002L53.406000000000006 -13.760000000000002L58.30800000000001 0L42.57 0L39.388000000000005 -11.266000000000002Q38.356 -15.05 36.636 -17.243000000000002Q34.916000000000004 -19.436 32.078 -20.425Q29.240000000000002 -21.414 24.768 -21.414L24.768 -21.414L19.78 -21.414L19.78 0M83.97999999999999 0L69.87599999999999 0L69.87599999999999 -56.760000000000005L83.97999999999999 -56.760000000000005L83.97999999999999 0M140.784 0L96.83799999999998 0L96.83799999999998 -13.072000000000001L124.52999999999999 -44.204L124.52999999999999 -45.236000000000004L97.69799999999998 -45.236000000000004L97.69799999999998 -56.760000000000005L139.666 -56.760000000000005L139.666 -42.57L112.91999999999999 -12.47L112.91999999999999 -11.524000000000001L140.784 -11.524000000000001L140.784 0M179.18399999999997 1.2040000000000002L179.18399999999997 1.2040000000000002Q173.76599999999996 1.2040000000000002 169.55199999999996 0.129Q165.33799999999997 -0.9460000000000001 162.24199999999996 -3.0100000000000002Q159.146 -5.074000000000001 157.12499999999997 -7.998Q155.10399999999998 -10.922 154.11499999999998 -14.577000000000002Q153.12599999999998 -18.232000000000003 153.12599999999998 -22.532000000000004L153.12599999999998 -22.532000000000004L153.12599999999998 -56.760000000000005L167.05799999999996 -56.760000000000005L167.05799999999996 -22.962000000000003Q167.05799999999996 -18.834000000000003 168.34799999999998 -16.168000000000003Q169.63799999999998 -13.502 172.30399999999997 -12.255Q174.96999999999997 -11.008000000000001 179.09799999999998 -11.008000000000001L179.09799999999998 -11.008000000000001Q183.22599999999997 -11.008000000000001 185.89199999999997 -12.255Q188.558 -13.502 189.84799999999998 -16.168000000000003Q191.13799999999998 -18.834000000000003 191.13799999999998 -22.962000000000003L191.13799999999998 -22.962000000000003L191.13799999999998 -56.760000000000005L204.98399999999998 -56.760000000000005L204.98399999999998 -22.532000000000004Q204.98399999999998 -11.266000000000002 198.57699999999997 -5.031000000000001Q192.16999999999996 1.2040000000000002 179.18399999999997 1.2040000000000002M234.00999999999996 0L220.50799999999995 0L220.50799999999995 -56.760000000000005L238.48199999999997 -56.760000000000005L262.81999999999994 -18.662000000000003L263.852 -18.662000000000003L262.99199999999996 -56.760000000000005L276.49399999999997 -56.760000000000005L276.49399999999997 0L260.23999999999995 0L234.18199999999996 -40.248000000000005L233.23599999999996 -40.248000000000005L234.00999999999996 0M302.8539999999999 0L287.71799999999996 0L306.98199999999997 -56.760000000000005L327.27799999999996 -56.760000000000005L346.542 0L331.40599999999995 0L317.818 -45.92400000000001L316.44199999999995 -45.92400000000001L302.8539999999999 0M337.16799999999995 -10.664000000000001L299.15599999999995 -10.664000000000001L299.15599999999995 -19.952L337.16799999999995 -19.952L337.16799999999995 -10.664000000000001M370.58 0L357.68 0L357.68 -56.760000000000005L378.406 -56.760000000000005L393.198 -15.910000000000002L393.628 -15.910000000000002L408.07599999999996 -56.760000000000005L427.856 -56.760000000000005L427.856 0L414.784 0L415.558 -42.656000000000006L414.61199999999997 -42.656000000000006L398.186 0L386.834 0L370.75199999999995 -42.656000000000006L369.806 -42.656000000000006L370.58 0M454.21599999999995 0L439.08 0L458.344 -56.760000000000005L478.64 -56.760000000000005L497.904 0L482.768 0L469.17999999999995 -45.92400000000001L467.804 -45.92400000000001L454.21599999999995 0M488.53 -10.664000000000001L450.518 -10.664000000000001L450.518 -19.952L488.53 -19.952L488.53 -10.664000000000001"/>
</svg>